<svg width="16" height="16" viewBox="0 0 16 16" fill="none" xmlns="http://www.w3.org/2000/svg">
<path d="M10.4224 2.1301L9.29993 3.2526L12.7474 6.7001L13.8699 5.5776C14.2099 5.2401 14.3999 4.7801 14.3999 4.3001C14.3999 3.8201 14.2099 3.3601 13.8699 3.0226L12.9774 2.1301C12.6399 1.7901 12.1799 1.6001 11.6999 1.6001C11.2199 1.6001 10.7599 1.7901 10.4224 2.1301ZM8.45243 4.1001L3.07243 9.4776C2.80493 9.7451 2.60993 10.0801 2.50743 10.4451L1.62243 13.6401C1.56493 13.8476 1.62243 14.0726 1.77743 14.2251C1.93243 14.3776 2.15493 14.4376 2.36243 14.3801L5.55743 13.4926C5.92243 13.3901 6.25493 13.1976 6.52493 12.9276L11.8999 7.5476L8.45243 4.1001Z" fill="black"/>
</svg>
